<svg version="1.1" id="Layer_1" xmlns="http://www.w3.org/2000/svg" xmlns:xlink="http://www.w3.org/1999/xlink" x="0px" y="0px"
	 width="100%" viewBox="0 0 800 800" enable-background="new 0 0 800 800" xml:space="preserve">
<path fill="#000000" opacity="0" stroke="none" 
	d="
M349.000000,801.000000 
	C233.032913,801.000000 117.065834,801.000000 1.049377,801.000000 
	C1.049377,534.441956 1.049377,267.883850 1.049377,1.000000 
	C118.024704,1.000000 235.049698,1.000000 352.537354,1.468657 
	C353.000000,32.573204 353.000000,63.209091 353.000000,93.621284 
	C350.663391,94.148567 348.777435,94.581322 346.888214,94.999382 
	C327.246887,99.345825 308.108429,105.357285 290.007477,114.110939 
	C273.841888,121.928642 258.709351,131.434158 245.007767,143.301254 
	C229.898590,156.387466 217.358963,171.320007 207.621979,188.762054 
	C196.433289,208.804535 189.980179,230.413940 188.316299,253.053146 
	C187.284485,267.092010 189.034271,281.378845 190.079926,295.514069 
	C191.027206,308.319885 195.288406,320.362152 200.528275,331.982544 
	C210.214157,353.462708 224.757187,371.149811 242.699142,386.368591 
	C255.484329,397.213287 269.307678,406.394012 283.934326,414.366821 
	C309.077942,428.072266 335.630157,438.544891 362.597473,448.086853 
	C378.291260,453.639832 393.945923,459.445709 409.160217,466.173401 
	C425.991821,473.616272 441.944611,482.750916 454.389587,496.865875 
	C459.918732,503.136932 464.388489,510.175568 465.815369,518.355347 
	C467.049500,525.430054 466.694427,532.785583 466.992462,540.018982 
	C467.290283,547.247742 464.555237,553.595642 460.888733,559.553223 
	C452.578979,573.055420 439.967346,581.116455 425.344421,585.903442 
	C404.388733,592.763550 382.911713,594.841064 360.762024,593.258484 
	C342.820038,591.976501 325.161560,589.766418 307.579834,586.086975 
	C281.993286,580.732361 257.498413,572.284241 233.828445,561.333313 
	C226.413712,557.902954 219.156296,554.132385 211.748169,550.478760 
	C211.030609,552.389160 210.396011,553.700623 210.039185,555.083801 
	C200.686874,591.339050 191.340500,627.596008 182.154343,663.893494 
	C181.900925,664.894836 183.119934,667.018433 184.160355,667.484375 
	C198.203415,673.772705 212.050079,680.666077 226.515137,685.806396 
	C247.905441,693.407715 269.929047,699.007568 292.515228,701.998230 
	C305.580383,703.728149 318.653870,705.400818 331.738922,706.971802 
	C337.400116,707.651550 343.099945,708.009399 349.000000,708.532837 
	C349.000000,739.380005 349.000000,770.190002 349.000000,801.000000 
z"/>
<path fill="#000000" opacity="0" stroke="none" 
	d="
M450.000000,1.000000 
	C566.966919,1.000000 683.933899,1.000000 800.950439,1.000000 
	C800.950439,267.558228 800.950439,534.116455 800.950439,801.000000 
	C682.975281,801.000000 564.950317,801.000000 446.462646,800.531372 
	C446.000000,767.109375 446.000000,734.156067 446.000000,702.145508 
	C458.905365,698.714417 471.230988,695.677917 483.411041,692.140198 
	C499.651276,687.423340 515.358154,681.135254 529.534668,671.900146 
	C541.978394,663.793701 554.425293,655.391541 565.529968,645.599487 
	C583.002014,630.192810 596.119995,611.215454 605.631104,589.844666 
	C613.918701,571.222961 618.680298,551.653687 619.838196,531.414001 
	C620.768738,515.149414 620.132812,498.838196 617.064697,482.688782 
	C614.288391,468.075836 610.067627,453.953369 603.218750,440.782135 
	C593.805725,422.679535 581.183899,407.144684 565.552612,393.838684 
	C551.172729,381.598022 535.734070,370.966553 518.922668,362.688568 
	C500.674591,353.703217 482.016266,345.352570 462.977051,338.219238 
	C434.886780,327.694794 406.911407,316.973907 380.521301,302.677155 
	C368.915833,296.389954 357.960999,289.032745 349.008301,278.749908 
	C332.125305,259.358612 337.137695,229.680069 357.169647,214.455353 
	C371.940277,203.229309 389.500610,198.991486 407.535309,198.220261 
	C427.282593,197.375778 447.185425,196.916840 466.752686,201.027512 
	C481.870850,204.203522 497.225311,206.697540 511.942596,211.224655 
	C529.501770,216.625931 546.493347,223.872345 564.302002,230.533066 
	C573.710876,193.877197 583.268677,156.641052 592.858765,119.279205 
	C547.769592,97.376297 499.616272,89.186844 450.000000,86.702499 
	C450.000000,57.943081 450.000000,29.471540 450.000000,1.000000 
z"/>
<path fill="#FFFFFF" opacity="1.000000" stroke="none" 
	d="
M449.531342,1.000000 
	C450.000000,29.471540 450.000000,57.943081 450.000000,86.702499 
	C499.616272,89.186844 547.769592,97.376297 592.858765,119.279205 
	C583.268677,156.641052 573.710876,193.877197 564.302002,230.533066 
	C546.493347,223.872345 529.501770,216.625931 511.942596,211.224655 
	C497.225311,206.697540 481.870850,204.203522 466.752686,201.027512 
	C447.185425,196.916840 427.282593,197.375778 407.535309,198.220261 
	C389.500610,198.991486 371.940277,203.229309 357.169647,214.455353 
	C337.137695,229.680069 332.125305,259.358612 349.008301,278.749908 
	C357.960999,289.032745 368.915833,296.389954 380.521301,302.677155 
	C406.911407,316.973907 434.886780,327.694794 462.977051,338.219238 
	C482.016266,345.352570 500.674591,353.703217 518.922668,362.688568 
	C535.734070,370.966553 551.172729,381.598022 565.552612,393.838684 
	C581.183899,407.144684 593.805725,422.679535 603.218750,440.782135 
	C610.067627,453.953369 614.288391,468.075836 617.064697,482.688782 
	C620.132812,498.838196 620.768738,515.149414 619.838196,531.414001 
	C618.680298,551.653687 613.918701,571.222961 605.631104,589.844666 
	C596.119995,611.215454 583.002014,630.192810 565.529968,645.599487 
	C554.425293,655.391541 541.978394,663.793701 529.534668,671.900146 
	C515.358154,681.135254 499.651276,687.423340 483.411041,692.140198 
	C471.230988,695.677917 458.905365,698.714417 446.000000,702.145508 
	C446.000000,734.156067 446.000000,767.109375 446.000000,800.531372 
	C413.979095,801.000000 381.958221,801.000000 349.468658,801.000000 
	C349.000000,770.190002 349.000000,739.380005 349.000000,708.532837 
	C343.099945,708.009399 337.400116,707.651550 331.738922,706.971802 
	C318.653870,705.400818 305.580383,703.728149 292.515228,701.998230 
	C269.929047,699.007568 247.905441,693.407715 226.515137,685.806396 
	C212.050079,680.666077 198.203415,673.772705 184.160355,667.484375 
	C183.119934,667.018433 181.900925,664.894836 182.154343,663.893494 
	C191.340500,627.596008 200.686874,591.339050 210.039185,555.083801 
	C210.396011,553.700623 211.030609,552.389160 211.748169,550.478760 
	C219.156296,554.132385 226.413712,557.902954 233.828445,561.333313 
	C257.498413,572.284241 281.993286,580.732361 307.579834,586.086975 
	C325.161560,589.766418 342.820038,591.976501 360.762024,593.258484 
	C382.911713,594.841064 404.388733,592.763550 425.344421,585.903442 
	C439.967346,581.116455 452.578979,573.055420 460.888733,559.553223 
	C464.555237,553.595642 467.290283,547.247742 466.992462,540.018982 
	C466.694427,532.785583 467.049500,525.430054 465.815369,518.355347 
	C464.388489,510.175568 459.918732,503.136932 454.389587,496.865875 
	C441.944611,482.750916 425.991821,473.616272 409.160217,466.173401 
	C393.945923,459.445709 378.291260,453.639832 362.597473,448.086853 
	C335.630157,438.544891 309.077942,428.072266 283.934326,414.366821 
	C269.307678,406.394012 255.484329,397.213287 242.699142,386.368591 
	C224.757187,371.149811 210.214157,353.462708 200.528275,331.982544 
	C195.288406,320.362152 191.027206,308.319885 190.079926,295.514069 
	C189.034271,281.378845 187.284485,267.092010 188.316299,253.053146 
	C189.980179,230.413940 196.433289,208.804535 207.621979,188.762054 
	C217.358963,171.320007 229.898590,156.387466 245.007767,143.301254 
	C258.709351,131.434158 273.841888,121.928642 290.007477,114.110939 
	C308.108429,105.357285 327.246887,99.345825 346.888214,94.999382 
	C348.777435,94.581322 350.663391,94.148567 353.000000,93.621284 
	C353.000000,63.209091 353.000000,32.573204 353.000000,1.468657 
	C385.020905,1.000000 417.041779,1.000000 449.531342,1.000000 
z"/>
</svg>
